# xmcd
#
# Track frame offsets: 
#        150
#        18226
#        33087
#        51087
#        69085
#        87536
#        102532
#        120531
#        139199
#        157733
#
# Disc length: 2331 seconds
#
# Revision: 0
# Processed by: cddbd v1.5.2PL0 Copyright (c) Steve Scherf et al.
# Submitted via: ExactAudioCopy v0.95b4
#
DISCID=7609190a
DTITLE=เกษม คมสันต์ - รอยยิ้มในหยาดเหงื่อ
DYEAR=2006
DGENRE=Country
TTITLE0=อาศัยเส้นเจ้าบ่าว
TTITLE1=ผ้าป่าสัญญาฮัก
TTITLE2=บอกหลอกคอยลอย
TTITLE3=รอยยิ้มในหยาดเหงื่อ
TTITLE4=คนช้ำประจำชุมชน
TTITLE5=เบาะข้างยังว่างอยู่
TTITLE6=ผู้รับอาสา
TTITLE7=สองครั้งที่แม่ร้องไห้
TTITLE8=นั่งเว้ากับสายลม
TTITLE9=คิดฮอดสาวตีข้าว
EXTD=
EXTT0=
EXTT1=
EXTT2=
EXTT3=
EXTT4=
EXTT5=
EXTT6=
EXTT7=
EXTT8=
EXTT9=
PLAYORDER=
